<svg width="316" height="217" viewBox="0 0 316 217" fill="none" xmlns="http://www.w3.org/2000/svg">
<g clip-path="url(#clip0_12_694)">
<path d="M315.281 216.955H0C3.4545 208.145 9.8344 200.671 18.8278 198.454C31.984 195.215 45.9065 204.122 59.0332 200.772C66.491 198.871 72.3622 193.333 78.5316 188.733C101.808 171.381 133.702 166.252 161.245 175.437C175.641 180.235 188.759 188.628 203.506 192.194C222.577 196.809 242.519 192.981 262.13 192.351C281.23 191.739 308.596 199.521 315.281 216.955Z" fill="#F3F5FD"/>
<path d="M264 151.233C261.747 158.059 253.971 164.125 256.294 169.145C257.178 171.053 258.065 173.049 258.473 175.087C258.738 176.303 258.782 177.556 258.604 178.787C257.766 184.103 252.792 187.634 248.166 190.383C247.881 190.552 247.592 190.725 247.303 190.897C242.921 193.523 238.33 196.547 236.922 201.395C236.14 204.088 236.485 206.967 236.162 209.752C235.855 212.311 234.986 214.771 233.616 216.955H204.077C201.455 214.064 201.673 209.206 203.669 205.799C205.806 202.152 209.414 199.673 212.67 196.977C215.483 194.646 218.225 191.841 219.299 188.419C219.47 187.877 219.596 187.323 219.676 186.761C219.936 184.909 219.795 175.45 223.006 169.627C227.97 160.636 236.021 162.851 238.481 157.778C239.425 155.835 240.238 131.956 255.921 136.367C257.45 136.776 258.88 137.492 260.124 138.472C261.367 139.451 262.399 140.674 263.154 142.065C263.91 143.456 264.375 144.986 264.521 146.562C264.666 148.138 264.489 149.728 264 151.233Z" fill="#C1D8ED"/>
<path d="M292.687 188.57C292.237 188.88 291.753 189.137 291.244 189.337C287.013 190.925 275.244 190.749 273.523 194.928C272.713 196.892 272.519 199.06 271.826 201.07C270.252 205.629 266.098 209.048 261.452 210.332C259.779 210.794 258.047 211.008 256.393 211.522C253.196 212.519 250.549 214.522 248.222 216.954H210.072C210.055 214.424 210.678 211.931 211.881 209.706C213.085 207.48 214.831 205.595 216.958 204.225C221.2 201.549 226.558 201.049 230.723 198.254C233.468 196.41 235.443 193.745 237.01 190.798C238.006 188.871 238.887 186.885 239.647 184.852C240.812 181.828 242.03 178.583 244.677 176.71C245.975 175.866 247.415 175.263 248.926 174.929C252.749 173.929 255.689 174.517 258.473 175.087C261.853 175.777 265.007 176.435 269.242 174.186C276.754 170.194 287.738 150.286 298.714 169.201C303.115 176.787 297.042 185.655 292.687 188.57Z" fill="#5DC481"/>
<path d="M53.4365 151.233C55.6895 158.059 63.466 164.125 61.1425 169.145C60.2589 171.053 59.3718 173.049 58.9635 175.087C58.6985 176.303 58.6544 177.556 58.8332 178.787C59.671 184.103 64.6453 187.634 69.271 190.383C69.5561 190.552 69.8448 190.725 70.1335 190.897C74.5163 193.523 79.1068 196.547 80.5149 201.395C81.2964 204.088 80.9514 206.967 81.2753 209.752C81.5822 212.311 82.4513 214.771 83.8205 216.955H113.36C115.982 214.064 115.764 209.206 113.768 205.799C111.631 202.152 108.023 199.673 104.767 196.977C101.954 194.646 99.2114 191.841 98.1377 188.419C97.9671 187.877 97.8411 187.323 97.761 186.761C97.5005 184.909 97.6413 175.45 94.4308 169.627C89.4671 160.636 81.4161 162.851 78.9554 157.778C78.012 155.835 77.1988 131.956 61.5157 136.367C59.9865 136.776 58.5565 137.492 57.313 138.472C56.0694 139.451 55.0383 140.674 54.2824 142.065C53.5266 143.456 53.0618 144.986 52.9163 146.562C52.7709 148.138 52.9479 149.728 53.4365 151.233Z" fill="#C1D8ED"/>
<path d="M24.7479 188.57C25.1982 188.88 25.6825 189.137 26.1913 189.337C30.4227 190.925 42.1912 190.749 43.9126 194.928C44.7223 196.892 44.9159 199.06 45.6094 201.07C47.183 205.629 51.337 209.048 55.9838 210.332C57.656 210.794 59.388 211.008 61.0426 211.522C64.239 212.519 66.8863 214.522 69.2133 216.954H107.363C107.38 214.424 106.758 211.931 105.554 209.706C104.35 207.48 102.604 205.595 100.477 204.225C96.2353 201.549 90.8774 201.049 86.7128 198.254C83.967 196.41 81.9921 193.745 80.4255 190.798C79.4289 188.871 78.5485 186.885 77.7888 184.852C76.6236 181.828 75.4055 178.583 72.7582 176.71C71.4601 175.866 70.0208 175.263 68.5092 174.929C64.6861 173.929 61.7466 174.517 58.962 175.087C55.5825 175.777 52.4283 176.435 48.1933 174.186C40.681 170.194 29.6975 150.286 18.7211 169.201C14.3221 176.787 20.3947 185.655 24.7479 188.57Z" fill="#5DC481"/>
<path d="M202.984 3.10599H116.595C109.98 3.10599 104.617 8.46885 104.617 15.0843V201.915C104.617 208.531 109.98 213.894 116.595 213.894H202.984C209.599 213.894 214.962 208.531 214.962 201.915V15.0843C214.962 8.46885 209.599 3.10599 202.984 3.10599Z" fill="white"/>
<path d="M202.984 217H116.595C112.596 216.995 108.762 215.404 105.934 212.576C103.107 209.749 101.516 205.915 101.511 201.915V15.0846C101.516 11.0855 103.107 7.25147 105.934 4.42358C108.762 1.59569 112.596 0.00484473 116.595 0L202.984 0C206.983 0.00484473 210.817 1.59569 213.645 4.42358C216.473 7.25147 218.063 11.0855 218.068 15.0846V201.915C218.063 205.915 216.473 209.749 213.645 212.576C210.817 215.404 206.983 216.995 202.984 217ZM116.595 6.21233C114.243 6.21475 111.987 7.15027 110.324 8.8136C108.66 10.4769 107.725 12.7322 107.722 15.0846V201.915C107.725 204.267 108.661 206.522 110.324 208.185C111.987 209.848 114.241 210.784 116.593 210.787H202.982C205.334 210.784 207.589 209.848 209.252 208.185C210.915 206.522 211.851 204.267 211.854 201.915V15.0846C211.851 12.7327 210.915 10.478 209.252 8.8149C207.589 7.15185 205.334 6.21628 202.982 6.21339L116.595 6.21233Z" fill="#DEE8F5"/>
<path d="M140.874 3.10599H178.705V10.4462C178.705 11.1677 178.563 11.8821 178.287 12.5487C178.01 13.2153 177.606 13.8209 177.096 14.3311C176.585 14.8412 175.98 15.2459 175.313 15.522C174.646 15.798 173.932 15.9401 173.211 15.9401H146.368C144.911 15.9401 143.513 15.3612 142.483 14.3309C141.453 13.3005 140.874 11.903 140.874 10.4459V3.10599H140.874Z" fill="#DEE8F5"/>
<path d="M177.907 48.4817C177.907 52.065 176.844 55.5677 174.853 58.5469C172.862 61.5261 170.032 63.848 166.721 65.2189C163.411 66.5898 159.768 66.9483 156.253 66.2489C152.739 65.5495 149.511 63.8236 146.977 61.2896C144.444 58.7556 142.719 55.5272 142.02 52.0127C141.321 48.4982 141.68 44.8555 143.052 41.5451C144.424 38.2347 146.746 35.4054 149.726 33.4149C152.705 31.4244 156.208 30.3622 159.791 30.3625C162.173 30.3535 164.533 30.816 166.735 31.7234C168.938 32.6309 170.938 33.9652 172.622 35.6496C174.306 37.3339 175.64 39.335 176.547 41.5374C177.454 43.7398 177.917 46.0999 177.907 48.4817Z" fill="#C1D8ED"/>
<path d="M159.79 50.3485C163.751 50.3485 166.963 47.1369 166.963 43.1751C166.963 39.2134 163.751 36.0017 159.79 36.0017C155.828 36.0017 152.616 39.2134 152.616 43.1751C152.616 47.1369 155.828 50.3485 159.79 50.3485Z" fill="white"/>
<path d="M172.845 61.0426C171.155 62.7999 169.128 64.1981 166.884 65.1532C164.641 66.1084 162.228 66.6008 159.79 66.6012C157.352 66.6015 154.939 66.1097 152.696 65.1551C150.452 64.2006 148.425 62.803 146.734 61.0461C149.178 55.5861 154.11 51.8545 159.791 51.8545C165.473 51.8545 170.402 55.5822 172.845 61.0426Z" fill="white"/>
<path d="M197.96 79.6616H121.619V96.3156H197.96V79.6616Z" fill="#5DC481"/>
<path d="M197.96 108.445H121.619V125.099H197.96V108.445Z" fill="#C1D8ED"/>
<path d="M251.865 70.9178C251.865 70.9178 249.034 69.7019 249.034 62.2645L243.344 61.6847C243.344 61.6847 244.516 68.2568 241.853 70.5911L251.865 70.9178Z" fill="#E98862"/>
<path d="M251.98 59.1388C251.776 61.4122 250.727 63.635 248.809 64.521C246.725 65.5533 244.419 66.0595 242.093 65.9957C235.915 65.9957 235.985 51.9432 238.676 48.9925C241.368 46.0417 250.058 47.0588 251.47 51.5064C252.199 53.8087 252.174 56.9752 251.98 59.1388Z" fill="#E98862"/>
<path d="M243.018 58.1337C243.3 58.1337 243.528 57.9054 243.528 57.6236C243.528 57.3419 243.3 57.1135 243.018 57.1135C242.737 57.1135 242.508 57.3419 242.508 57.6236C242.508 57.9054 242.737 58.1337 243.018 58.1337Z" fill="#367CFF"/>
<path d="M244.021 56.6133C244.009 56.6132 243.996 56.6123 243.984 56.6105L242.63 56.3993C242.598 56.3954 242.567 56.3852 242.539 56.3692C242.511 56.3532 242.487 56.3318 242.467 56.3061C242.448 56.2804 242.434 56.2511 242.426 56.2199C242.418 56.1887 242.416 56.1562 242.421 56.1244C242.426 56.0926 242.437 56.0621 242.454 56.0347C242.471 56.0074 242.494 55.9837 242.52 55.9652C242.546 55.9467 242.576 55.9336 242.608 55.9268C242.639 55.9201 242.672 55.9197 242.703 55.9258L244.057 56.137C244.117 56.1462 244.171 56.1775 244.208 56.2247C244.246 56.2719 244.264 56.3315 244.26 56.3916C244.255 56.4517 244.228 56.5079 244.184 56.5491C244.14 56.5902 244.082 56.6133 244.022 56.6136L244.021 56.6133Z" fill="#367CFF"/>
<path d="M239.019 59.7886C239.019 60.3622 239.246 60.9122 239.652 61.3178C240.058 61.7233 240.608 61.9512 241.181 61.9512C241.755 61.9512 242.305 61.7233 242.71 61.3178C243.116 60.9122 243.344 60.3622 243.344 59.7886C243.353 59.2247 243.138 58.6801 242.746 58.2745C242.355 57.869 241.818 57.6357 241.254 57.6261C241.229 57.6261 241.205 57.6261 241.181 57.6261C239.641 57.7018 239.019 58.5942 239.019 59.7886Z" fill="#E98862"/>
<path d="M239.001 54.7021C237.802 54.6927 236.605 54.5918 235.422 54.4004C235.422 54.4004 235.784 45.2747 245.475 45.795C246.734 45.7375 247.995 45.8119 249.237 46.0171C252.151 46.4635 256.28 49.4417 256.947 56.8949C257.253 60.3142 258.431 63.5374 259.331 65.5782C259.437 65.8178 259.482 66.0801 259.461 66.3413C259.44 66.6026 259.354 66.8545 259.212 67.0743C259.069 67.2941 258.873 67.4747 258.643 67.5999C258.413 67.725 258.155 67.7908 257.893 67.7911L237.13 67.6256C236.884 67.6257 236.642 67.5684 236.423 67.4582C236.203 67.348 236.013 67.188 235.866 66.991C235.72 66.794 235.622 66.5655 235.579 66.3237C235.537 66.082 235.552 65.8336 235.623 65.5986C236.752 61.8582 238.819 59.5658 239.001 54.7021Z" fill="#0F1011"/>
<path d="M202.536 93.2184C202.536 93.2184 197.537 91.8325 196.819 90.877C196.101 89.9216 197.847 86.7058 197.847 86.7058C197.847 86.7058 192.848 84.6594 193.328 83.8515C193.897 82.8979 200.139 86.3112 200.139 86.3112C200.139 86.3112 198.781 84.7063 199.445 84.2821C199.718 84.106 200.074 84.2979 201.088 85.4103C202.244 86.6776 204.243 88.4762 204.243 88.4762L202.536 93.2184Z" fill="#E98862"/>
<path d="M227.407 213.147C226.628 206.593 226.628 205.919 226.628 205.697H234.021C234.021 205.675 234.021 205.646 234.021 205.611C234.047 206.158 234.42 209.496 234.751 212.274L227.407 213.147Z" fill="#E98862"/>
<path d="M256.863 214.031C256.863 214.031 256.839 206.375 256.839 205.697H264.231C264.231 206.373 264.256 214.005 264.256 214.005L256.863 214.031Z" fill="#E98862"/>
<path d="M267.571 120.71C267.571 121.759 267.017 125.266 267.908 125.517C268.442 125.667 269.073 123.053 269.073 123.053" fill="#E98862"/>
<path d="M271.777 120.159C271.777 120.159 274.686 127.24 271.368 131.308C271.283 131.411 271.17 131.487 271.041 131.525C270.913 131.563 270.776 131.561 270.649 131.52C270.522 131.479 270.41 131.4 270.328 131.295C270.246 131.189 270.198 131.061 270.19 130.927C270.029 128.184 269.476 122.551 267.667 123.209V118.786" fill="#E98862"/>
<path d="M263.184 165.972C262.47 154.926 261.236 136.395 260.631 125.522H260.731L259.689 108.026L232.907 109.679L232.632 111.555L232.538 111.527C229.399 128.165 228.061 146.566 225.516 163.323C225.337 178.852 225.288 195.101 224.68 210.592L237.706 210.813C237.665 195.682 238.039 179.862 238.485 164.705C240.527 152.824 243.395 139.64 245.697 127.889C247.779 150.783 250.883 188.288 253.185 211.49L266.164 210.394L263.184 165.972Z" fill="#262626"/>
<path d="M247.877 216.889C247.688 216.889 247.5 216.85 247.325 216.777C247.15 216.703 246.991 216.596 246.857 216.461C246.723 216.326 246.618 216.166 246.546 215.991C246.474 215.815 246.437 215.627 246.438 215.437C246.438 215.401 246.44 215.366 246.443 215.331C246.464 215.056 246.563 214.793 246.729 214.573C246.895 214.353 247.12 214.185 247.378 214.089L255.983 211.207C256.15 211.151 256.326 211.133 256.501 211.152C256.675 211.172 256.844 211.229 256.994 211.319C258.177 212.14 259.592 212.559 261.031 212.516C262.152 212.436 263.228 212.043 264.136 211.382C264.216 211.316 264.313 211.275 264.415 211.262C264.518 211.249 264.622 211.266 264.715 211.311C264.808 211.355 264.887 211.425 264.942 211.512C264.997 211.599 265.026 211.701 265.026 211.804V216.011C265.026 216.262 264.927 216.501 264.75 216.678C264.573 216.855 264.333 216.954 264.083 216.954H264.079L247.877 216.889Z" fill="#C1D8ED"/>
<path d="M218.401 216.889C218.212 216.889 218.024 216.85 217.849 216.777C217.673 216.703 217.515 216.596 217.381 216.461C217.247 216.326 217.142 216.166 217.07 215.991C216.998 215.815 216.961 215.627 216.962 215.437C216.962 215.401 216.964 215.366 216.967 215.331C216.988 215.056 217.087 214.793 217.253 214.573C217.419 214.353 217.644 214.185 217.903 214.089L226.507 211.207C226.674 211.151 226.85 211.133 227.025 211.152C227.199 211.172 227.368 211.229 227.518 211.319C228.701 212.14 230.116 212.559 231.555 212.516C232.676 212.436 233.752 212.043 234.66 211.382C234.74 211.316 234.837 211.275 234.94 211.262C235.042 211.249 235.146 211.266 235.239 211.311C235.332 211.355 235.411 211.425 235.466 211.512C235.521 211.6 235.55 211.701 235.55 211.804V216.012C235.55 216.262 235.451 216.501 235.274 216.678C235.097 216.855 234.857 216.954 234.607 216.954H234.603L218.401 216.889Z" fill="#C1D8ED"/>
<path d="M270.158 98.3771C270.119 98.1175 270.054 97.8625 269.963 97.616L261.883 75.6442L261.835 75.6622C261.483 74.5802 260.877 73.5986 260.067 72.8001C258.459 71.1921 255.674 70.1511 252.281 70.1511C247.232 70.1511 240.335 70.162 238.922 70.2215C234.604 70.4067 232.585 72.3421 231.76 75.2007L221.663 93.3279L204.151 86.8132L201.574 93.7419L222.058 101.364C222.886 101.673 223.797 101.674 224.626 101.369C225.455 101.063 226.147 100.471 226.576 99.6987L232.211 89.5823C232.36 91.0203 232.472 92.4337 232.487 93.781C232.623 105.21 229.537 107.363 231.057 110.858C232.534 114.246 261.516 115.656 261.904 109.69C262.15 105.896 258.806 102.583 258.806 95.1866C258.834 93.7812 259.019 92.3833 259.359 91.0193L262.623 99.893L265.826 121.475L273.419 120.348L270.158 98.3771Z" fill="#009B37"/>
<path d="M159.79 193.594C173.175 193.594 184.026 182.742 184.026 169.357C184.026 155.971 173.175 145.12 159.79 145.12C146.404 145.12 135.553 155.971 135.553 169.357C135.553 182.742 146.404 193.594 159.79 193.594Z" fill="#C1D8ED"/>
<path d="M144.717 158.56C141.937 180.54 160.175 186.53 160.175 186.53C160.175 186.53 176.92 180.159 174.996 158.614C174.996 158.614 165.224 160.672 160.175 153.305C160.175 153.305 156.464 160.447 144.717 158.56Z" fill="white"/>
<path d="M164.932 167.207H164.2V165.57C164.189 164.408 163.72 163.296 162.894 162.478C162.068 161.659 160.953 161.2 159.79 161.2C158.627 161.2 157.511 161.659 156.685 162.478C155.86 163.296 155.39 164.408 155.38 165.57V167.207H154.648C154.313 167.207 153.992 167.34 153.756 167.576C153.519 167.813 153.386 168.134 153.386 168.469V176.696C153.386 177.031 153.519 177.352 153.756 177.588C153.992 177.825 154.313 177.958 154.648 177.958H164.932C165.267 177.958 165.588 177.825 165.825 177.588C166.062 177.352 166.195 177.031 166.195 176.696V168.469C166.195 168.303 166.162 168.139 166.098 167.986C166.035 167.832 165.942 167.693 165.825 167.576C165.707 167.459 165.568 167.366 165.415 167.303C165.262 167.239 165.098 167.207 164.932 167.207ZM156.814 165.57C156.822 164.787 157.139 164.038 157.697 163.487C158.254 162.936 159.006 162.626 159.79 162.626C160.574 162.626 161.326 162.936 161.883 163.487C162.44 164.038 162.758 164.787 162.766 165.57V167.207H156.814V165.57Z" fill="#0CBC8B"/>
<path d="M129.17 90.6746C130.653 90.6746 131.856 89.472 131.856 87.9886C131.856 86.5052 130.653 85.3026 129.17 85.3026C127.686 85.3026 126.484 86.5052 126.484 87.9886C126.484 89.472 127.686 90.6746 129.17 90.6746Z" fill="white"/>
<path d="M137.234 90.6746C138.718 90.6746 139.92 89.472 139.92 87.9886C139.92 86.5052 138.718 85.3026 137.234 85.3026C135.751 85.3026 134.548 86.5052 134.548 87.9886C134.548 89.472 135.751 90.6746 137.234 90.6746Z" fill="white"/>
<path d="M145.299 90.6746C146.782 90.6746 147.985 89.472 147.985 87.9886C147.985 86.5052 146.782 85.3026 145.299 85.3026C143.815 85.3026 142.613 86.5052 142.613 87.9886C142.613 89.472 143.815 90.6746 145.299 90.6746Z" fill="white"/>
<path d="M153.364 90.6746C154.847 90.6746 156.05 89.472 156.05 87.9886C156.05 86.5052 154.847 85.3026 153.364 85.3026C151.88 85.3026 150.678 86.5052 150.678 87.9886C150.678 89.472 151.88 90.6746 153.364 90.6746Z" fill="white"/>
<path d="M161.428 90.6746C162.911 90.6746 164.114 89.472 164.114 87.9886C164.114 86.5052 162.911 85.3026 161.428 85.3026C159.945 85.3026 158.742 86.5052 158.742 87.9886C158.742 89.472 159.945 90.6746 161.428 90.6746Z" fill="white"/>
<path d="M169.493 90.6746C170.976 90.6746 172.179 89.472 172.179 87.9886C172.179 86.5052 170.976 85.3026 169.493 85.3026C168.009 85.3026 166.807 86.5052 166.807 87.9886C166.807 89.472 168.009 90.6746 169.493 90.6746Z" fill="white"/>
<path d="M177.27 90.6746C178.753 90.6746 179.956 89.472 179.956 87.9886C179.956 86.5052 178.753 85.3026 177.27 85.3026C175.786 85.3026 174.584 86.5052 174.584 87.9886C174.584 89.472 175.786 90.6746 177.27 90.6746Z" fill="white"/>
<path d="M129.17 119.458C130.653 119.458 131.856 118.256 131.856 116.772C131.856 115.289 130.653 114.086 129.17 114.086C127.686 114.086 126.484 115.289 126.484 116.772C126.484 118.256 127.686 119.458 129.17 119.458Z" fill="white"/>
<path d="M137.234 119.458C138.718 119.458 139.92 118.256 139.92 116.772C139.92 115.289 138.718 114.086 137.234 114.086C135.751 114.086 134.548 115.289 134.548 116.772C134.548 118.256 135.751 119.458 137.234 119.458Z" fill="white"/>
<path d="M145.299 119.458C146.782 119.458 147.985 118.256 147.985 116.772C147.985 115.289 146.782 114.086 145.299 114.086C143.815 114.086 142.613 115.289 142.613 116.772C142.613 118.256 143.815 119.458 145.299 119.458Z" fill="white"/>
<path d="M153.364 119.458C154.847 119.458 156.05 118.256 156.05 116.772C156.05 115.289 154.847 114.086 153.364 114.086C151.88 114.086 150.678 115.289 150.678 116.772C150.678 118.256 151.88 119.458 153.364 119.458Z" fill="white"/>
<path d="M161.428 119.458C162.911 119.458 164.114 118.256 164.114 116.772C164.114 115.289 162.911 114.086 161.428 114.086C159.945 114.086 158.742 115.289 158.742 116.772C158.742 118.256 159.945 119.458 161.428 119.458Z" fill="white"/>
<path d="M169.493 119.458C170.976 119.458 172.179 118.256 172.179 116.772C172.179 115.289 170.976 114.086 169.493 114.086C168.009 114.086 166.807 115.289 166.807 116.772C166.807 118.256 168.009 119.458 169.493 119.458Z" fill="white"/>
</g>
<defs>
<clipPath id="clip0_12_694">
<rect width="315.279" height="217" fill="white"/>
</clipPath>
</defs>
</svg>
